<svg data-v-0dd9719b="" version="1.0" xmlns="http://www.w3.org/2000/svg" xmlns:xlink="http://www.w3.org/1999/xlink" width="100%" height="100%" viewBox="0 0 340.000000 250.000000" preserveAspectRatio="xMidYMid meet" color-interpolation-filters="sRGB" style="margin: auto;"> <rect data-v-0dd9719b="" x="0" y="0" width="100%" height="100%" fill="#fff" fill-opacity="1" class="background"></rect> <rect data-v-0dd9719b="" x="0" y="0" width="100%" height="100%" fill="url(#watermark)" fill-opacity="1" class="watermarklayer"></rect> <g data-v-0dd9719b="" fill="#333" class="icon-text-wrapper icon-svg-group iconsvg" transform="translate(47.980003356933594,95.17951965332031)"><g class="iconsvg-imagesvg" transform="translate(0,0)"><g><rect fill="#333" fill-opacity="0" stroke-width="2" x="0" y="0" width="60" height="59.64096141229797" class="image-rect"></rect> <svg x="0" y="0" width="60" height="59.64096141229797" filtersec="colorsb5225160805" class="image-svg-svg primary" style="overflow: visible;"><svg xmlns="http://www.w3.org/2000/svg" viewBox="-0.008745322935283184 0 88.64998626708984 88.11907196044922"><title>资源 207</title><path d="M8.47 55.49h5.25a1.58 1.58 0 0 1 1.65 1.09 31.1 31.1 0 0 0 15.94 16.2 27.76 27.76 0 0 0 9.15 2.56c.88.08 1.31.46 1.31 1.36v10.15c0 1.27-.23 1.33-1.5 1.21a47.72 47.72 0 0 1-5.27-.75 44.06 44.06 0 0 1-29.56-22.1 41.5 41.5 0 0 1-3.52-8.39c-.24-.82 0-1.34 1-1.33z" fill="#2bb17a"></path><path d="M80.34 55.49h5.24c1.32 0 1.5.28 1.12 1.5A43.88 43.88 0 0 1 67.15 82a43.44 43.44 0 0 1-13.37 5.33c-1.87.42-3.75.53-5.63.77-.8.11-1.13-.26-1.13-1V76.47c0-.76.38-1 1.11-1.13a30.91 30.91 0 0 0 20.49-11.12 31.33 31.33 0 0 0 4.72-7.63 1.63 1.63 0 0 1 1.75-1.11c1.75.03 3.5.01 5.25.01zM8.49 32.22H3.02c-1.07 0-1.3-.38-1-1.35a44 44 0 0 1 9-16.07 43.6 43.6 0 0 1 20-13A34.32 34.32 0 0 1 40.4 0c1 0 1.38.32 1.37 1.31v9.92c0 .81-.22 1.31-1.19 1.44a31.5 31.5 0 0 0-14.86 5.86 30.59 30.59 0 0 0-9.88 12 2.49 2.49 0 0 1-2.79 1.73c-1.51-.13-3 0-4.56 0z" fill="#f465d2"></path><path d="M80.22 32.22h-5.25A1.77 1.77 0 0 1 73.13 31a31.47 31.47 0 0 0-25-18.37c-.8-.11-1.14-.43-1.14-1.22V1.15C47 .3 47.37 0 48.24 0a32.93 32.93 0 0 1 10.21 2A43.72 43.72 0 0 1 80 17.65a43 43 0 0 1 6.71 13.24c.31 1 .13 1.3-1 1.32-1.85.02-3.71.01-5.49.01z" fill="#2bb17a"></path><path d="M30.25 50h-9.79c-1 0-1.5-.28-1.65-1.27a32.45 32.45 0 0 1 0-10.08 1.35 1.35 0 0 1 1.52-1.21h19.94c.91 0 1.29.37 1.28 1.3v10c0 1-.41 1.25-1.3 1.24-3.32.02-6.66.02-10 .02zM58.33 50h-9.69c-1.46 0-1.59-.12-1.59-1.53V39c0-1.39.14-1.52 1.48-1.54 6.61-.11 13.22.17 19.83.18A1.34 1.34 0 0 1 69.84 39a35.9 35.9 0 0 1 .48 6.46c0 1.28-.45 2.46-.56 3.71-.07.85-.84.85-1.5.85h-9.93z" fill="#f7941d"></path><path d="M57.21 55.72H66c.4 0 .9-.12 1.13.33s-.19.7-.37 1c-4.14 7.12-10.4 11.15-18.41 12.65-.91.17-1.3-.09-1.29-1V56.85c0-.91.46-1.18 1.29-1.17h8.88z" fill="#f465d2"></path><path d="M41.56 62.8v5.92c0 .81-.29 1.2-1.18 1a26.69 26.69 0 0 1-12.3-5.59A26.23 26.23 0 0 1 22 57c-.6-1-.47-1.27.71-1.27h17.65c.94 0 1.29.35 1.27 1.28-.09 1.92-.07 3.85-.07 5.79z" fill="#2bb17a"></path><path d="M31.55 32H23c-1.54 0-1.68-.22-.89-1.51a25.71 25.71 0 0 1 14.57-11.36c1.24-.39 2.52-.5 3.76-.86.92-.28 1.3.12 1.31 1 0 1.79.1 3.58 0 5.36-.13 2.05-.14 4.1-.12 6.15 0 .93-.36 1.28-1.29 1.27h-8.77z" fill="#f465d2"></path><path d="M57.15 32h-8.66c-1.08 0-1.48-.38-1.47-1.46v-11c0-1.34.15-1.41 1.47-1.19a26 26 0 0 1 15.26 8.38 31.59 31.59 0 0 1 2.9 3.93c.65 1 .41 1.35-.75 1.36h-8.77z" fill="#2bb17a"></path><path d="M6.74 50.25h-5A1.24 1.24 0 0 1 .31 49a41.12 41.12 0 0 1 0-10.22A1.49 1.49 0 0 1 2 37.26h9.8c1.38 0 1.46.22 1.3 1.6a44.11 44.11 0 0 0-.07 9.88c.14 1.35 0 1.48-1.43 1.49zM81.84 50.25h-5.13c-1 0-1.37-.36-1.18-1.4a27.82 27.82 0 0 0-.12-10.29c-.21-1.09.48-1.25 1.26-1.26h10.14c1 0 1.46.49 1.55 1.54a45.39 45.39 0 0 1 0 10.09c-.13 1-.49 1.35-1.42 1.34-1.69-.04-3.39-.02-5.1-.02z" fill="#f7941d"></path></svg></svg> <!----></g></g> <g transform="translate(67,8.30923080444336)"><g data-gra="path-name" fill-rule="" class="tp-name iconsvg-namesvg" transform="translate(0,0)"><g transform="scale(1)"><g><path d="M14.58-12.23L14.58-12.65 34.42-12.65 34.42-12.23 34.42-9.27 34.42-4.69Q34.42-3.81 34.1-3.06 33.77-2.31 33.19-1.73 32.62-1.15 31.85-0.83 31.08-0.5 30.19-0.5L30.19-0.5 14.58-0.5 14.58-9.27 14.58-12.23ZM29.69-5.12L29.69-9.27 19.31-9.27 19.31-3.92 28.46-3.92Q29-3.92 29.35-4.27 29.69-4.62 29.69-5.12L29.69-5.12ZM14.73-17.85L34.27-17.85 34.27-14 14.73-14 14.73-17.85ZM32.12-27.88L34.65-19.12 29.46-19.12 27.69-24.12 21.92-24.12 20.19-19.12 14.58-19.12 17.54-27.88 32.12-27.88ZM13.12-27.31L13.12-4Q13.12-3.12 12.79-2.35 12.46-1.58 11.88-1.02 11.31-0.46 10.54-0.13 9.77 0.19 8.88 0.19L8.88 0.19 0.69 0.19 0.69-27.31 13.12-27.31ZM8.23-5.35L8.23-23.54 5.62-23.54 5.62-3.54 7-3.54Q7.54-3.54 7.88-3.88 8.23-4.23 8.23-4.73L8.23-4.73 8.23-5.35ZM48.46-3.35L49.46-3.35Q49.96-3.35 50.31-3.69 50.65-4.04 50.65-4.54L50.65-4.54 50.65-19.58 56.08-19.58 56.08-4.23Q56.08-3.35 55.75-2.6 55.42-1.85 54.85-1.29 54.27-0.73 53.5-0.4 52.73-0.08 51.88-0.08L51.88-0.08 47-0.08 48.46-3.35ZM46.69-17.04L41.92-1.08 36.38-1.08 41.19-17.04 46.69-17.04ZM59.15-17.04L64.65-17.04 69.46-1.08 63.96-1.08 59.15-17.04ZM44.08-21.81L41.85-21.81 38-21.81 40.42-27.62 46.62-27.62 45.65-25.38 69.73-25.38 67.65-19 61.46-19 62.46-21.81 44.08-21.81ZM104.96 0.04L98.92 0.04 97.15-3.62 103.19-3.62 104.96 0.04ZM89.35-3.62L87.58 0.04 81.54 0.04 83.27-3.62 89.35-3.62ZM76.88-0.04L71.58-0.04 75.12-10.96 80.42-10.96 76.88-0.04ZM75.12-12.77L71.58-21.38 74.19-21.38 71.58-27.73 76.88-27.73 80.42-19.12 77.81-19.12 80.42-12.77 75.12-12.77ZM105.35-22.19L105.35-21.08 100.62-21.08 100.62-22.38Q100.62-22.92 100.27-23.25 99.92-23.58 99.42-23.58L99.42-23.58 86.31-23.58 86.31-21.08 81.54-21.08 81.54-26.38 90.35-26.38 89.73-27.73 95.5-27.73 96.12-26.38 101.15-26.38Q102-26.38 102.77-26.06 103.54-25.73 104.12-25.15 104.69-24.58 105.02-23.81 105.35-23.04 105.35-22.19L105.35-22.19ZM105.35-7.88L105.35-4.69 80.96-4.69 80.96-7.88 82.81-7.88 82.81-16.04 82.81-19.19 82.81-19.23 83.19-19.23 104.81-20.19 104.81-17 88.04-16.27 88.04-14.35 104.81-14.35 104.81-11.15 99.77-11.15 99.77-7.88 105.35-7.88ZM88.04-11.15L88.04-7.88 94.54-7.88 94.54-11.15 88.04-11.15ZM106.92-7.08L110.58-7.08 110.58-12.35 106.92-12.35 106.92-15.81 110.58-15.81 110.58-20.92 106.92-20.92 106.92-24.38 110.58-24.38 110.58-27.81 115.92-27.81 115.92-24.38 119.58-24.38 119.58-20.92 115.92-20.92 115.92-15.81 119.58-15.81 119.58-12.35 115.92-12.35 115.92-7.08 119.58-7.08 119.58-3.62 115.92-3.62 115.92 0.12 110.58 0.12 110.58-3.62 106.92-3.62 106.92-7.08ZM122.92-27.69L128.62-27.69 127.85-26.04 140.73-26.04 138.19-19.73 140.73-19.73 140.73-10.88Q140.73-10 140.4-9.23 140.08-8.46 139.5-7.88 138.92-7.31 138.15-6.98 137.38-6.65 136.5-6.65L136.5-6.65 125.46-6.65 125.46-4.92Q125.46-4.42 125.81-4.08 126.15-3.73 126.69-3.73L126.69-3.73 140.73-3.73 139.04 0.08 124.77 0.08Q123.88 0.08 123.13-0.25 122.38-0.58 121.81-1.15 121.23-1.73 120.9-2.5 120.58-3.27 120.58-4.15L120.58-4.15 120.58-15.92 120.54-15.92 120.54-19.73 133.19-19.73 134.27-22.23 120.46-22.23 122.92-27.69ZM125.46-15.92L125.46-10.46 127.92-10.46 127.92-15.92 125.46-15.92ZM135.81-11.65L135.81-15.92 133.27-15.92 133.27-10.46 134.62-10.46Q135.12-10.46 135.46-10.81 135.81-11.15 135.81-11.65L135.81-11.65ZM176.73 0.12L171.15 0.12 169.15-4.77 166.27 0.08 160.73 0.08 166.88-10.65 162.81-21.62 150.19-21.62 150.19-18.42 160.81-18.42 160.81-4.15Q160.81-3.19 160.5-2.5L160.5-2.5Q160.08-1.65 159.58-1.15L159.58-1.15Q158.96-0.58 158.23-0.23L158.23-0.23Q157.42 0.08 156.58 0.08L156.58 0.08 152.42 0.08 153.88-3.73 154.73-3.73Q155.27-3.73 155.65-4.12L155.65-4.12Q155.96-4.42 155.96-4.92L155.96-4.92 155.96-14.62 150.19-14.62 150.19-3.81 148.62 0.12 143.81 0.12 145.38-3.81 145.38-25.46 161.35-25.46 160.46-27.81 165.62-27.81 166.58-25.46 170.46-25.46 169.46-27.77 175.04-27.77 177.73-21.62 168.08-21.62 170.19-16.27 172.15-19.65 177.73-19.65 172.46-10.54 176.73 0.12Z" transform="translate(-0.690000057220459, 27.8799991607666)"></path></g> <!----> <!----> <!----> <!----> <!----> <!----> <!----></g></g> <g data-gra="path-slogan" fill-rule="" class="tp-slogan iconsvg-slogansvg" fill="#333" transform="translate(31.30999755859375,34.06999969482422)"><!----> <!----> <g transform="scale(1, 1)"><g transform="scale(1)"><path d="M2.06-5.06L6.56-5.06L6.56-8.58L7.73-8.58L7.73 0L6.56 0L6.56-3.98L2.06-3.98L2.06 0L0.89 0L0.89-8.58L2.06-8.58L2.06-5.06ZM15.19 0L14.34-2.48L10.88-2.48L9.98 0L8.81 0L12.05-8.58L13.36-8.58L16.45 0L15.19 0ZM12.61-7.31L11.25-3.52L13.92-3.52L12.66-7.31L12.61-7.31ZM21.61-3.70L18.80-3.70L18.80 0L17.63 0L17.63-8.58L21.61-8.58Q24.47-8.58 24.47-6.28L24.47-6.28Q24.47-4.88 23.25-4.22L23.25-4.22Q24.28-3.94 24.28-2.58L24.28-2.58L24.38-1.03Q24.33-0.38 24.80-0.19L24.80-0.19L24.80 0L23.34 0Q23.20-0.61 23.16-2.16L23.16-2.16Q23.20-3.70 21.61-3.70L21.61-3.70ZM21.70-7.64L18.80-7.64L18.80-4.69L21.52-4.69Q23.25-4.69 23.25-6.19L23.25-6.19Q23.25-7.64 21.70-7.64L21.70-7.64ZM29.34-7.64L27.28-7.64L27.28-4.97L29.34-4.97Q31.17-4.92 31.13-6.38L31.13-6.38Q31.13-7.64 29.34-7.64L29.34-7.64ZM29.81 0L26.11 0L26.11-8.58L29.91-8.58Q32.20-8.48 32.30-6.42L32.30-6.42Q32.30-5.16 31.17-4.64L31.17-4.64Q32.77-4.08 32.77-2.53L32.77-2.53Q32.63-0.09 29.81 0L29.81 0ZM29.53-3.98L27.28-3.98L27.28-0.98L29.77-0.98Q31.55-1.03 31.59-2.53L31.59-2.53Q31.59-3.98 29.53-3.98L29.53-3.98ZM34.27-8.58L35.44-8.58L35.44 0L34.27 0L34.27-8.58ZM38.81-8.58L43.13-1.64L43.13-8.58L44.25-8.58L44.25 0L42.94 0L38.58-6.94L38.53-6.94L38.53 0L37.41 0L37.41-8.58L38.81-8.58ZM56.30-8.58L53.06-3.47L53.06 0L51.89 0L51.89-3.47L48.66-8.58L50.02-8.58L52.45-4.45L54.94-8.58L56.30-8.58ZM63 0L62.16-2.48L58.69-2.48L57.80 0L56.63 0L59.86-8.58L61.17-8.58L64.27 0L63 0ZM60.42-7.31L59.06-3.52L61.73-3.52L60.47-7.31L60.42-7.31ZM66.70-8.58L71.02-1.64L71.02-8.58L72.14-8.58L72.14 0L70.83 0L66.47-6.94L66.42-6.94L66.42 0L65.30 0L65.30-8.58L66.70-8.58ZM81.09-6.05L81.09-6.05L79.97-6.05Q79.55-7.78 77.58-7.83L77.58-7.83Q74.86-7.69 74.77-4.36L74.77-4.36Q74.77-0.80 77.63-0.80L77.63-0.80Q79.59-0.84 80.06-3.19L80.06-3.19L81.19-3.19Q80.67 0.05 77.39 0.14L77.39 0.14Q73.64 0 73.55-4.31L73.55-4.31Q73.73-8.63 77.58-8.81L77.58-8.81Q80.63-8.72 81.09-6.05ZM83.72-5.06L88.22-5.06L88.22-8.58L89.39-8.58L89.39 0L88.22 0L88.22-3.98L83.72-3.98L83.72 0L82.55 0L82.55-8.58L83.72-8.58L83.72-5.06ZM92.48-1.03L97.64-1.03L97.64 0L91.31 0L91.31-8.58L97.55-8.58L97.55-7.59L92.48-7.59L92.48-4.92L97.17-4.92L97.17-3.89L92.48-3.89L92.48-1.03ZM100.55-8.58L104.86-1.64L104.86-8.58L105.98-8.58L105.98 0L104.67 0L100.31-6.94L100.27-6.94L100.27 0L99.14 0L99.14-8.58L100.55-8.58ZM114.19-3.61L111.56-3.61L111.56-4.59L115.31-4.59L115.31 0L114.56 0L114.28-1.08Q113.30 0.09 111.47 0.14L111.47 0.14Q109.73 0.14 108.80-0.75L108.80-0.75Q107.39-2.06 107.44-4.36L107.44-4.36Q107.77-8.63 111.52-8.81L111.52-8.81Q114.70-8.63 115.17-6L115.17-6L114.05-6Q113.58-7.78 111.47-7.83L111.47-7.83Q108.80-7.64 108.66-4.31L108.66-4.31Q108.66-0.75 111.52-0.75L111.52-0.75Q112.55-0.75 113.30-1.31L113.30-1.31Q114.23-2.06 114.19-3.61L114.19-3.61Z" transform="translate(-0.890625, 8.8125)"></path></g></g></g></g></g><defs v-gra="od"></defs></svg>